<?xml version="1.0" encoding="utf-8"?>
<!-- Generator: Adobe Illustrator 16.0.0, SVG Export Plug-In . SVG Version: 6.00 Build 0)  -->
<svg version="1.2" baseProfile="tiny" xmlns="http://www.w3.org/2000/svg" xmlns:xlink="http://www.w3.org/1999/xlink" x="0px"
	 y="0px" width="51.02px" height="45.35px" viewBox="0 0 51.02 45.35" xml:space="preserve">
<g id="pcb" display="none">
	<g id="Outline" display="inline">
		<path d="M47.48,0.705v43.936H3.544V0.705H47.48 M48.189-0.004H2.836V45.35h45.354V-0.004L48.189-0.004z"/>
		
			<rect x="12.473" y="10.205" fill="none" stroke="#000000" stroke-width="0.7087" stroke-miterlimit="10" width="16.441" height="16.724"/>
		
			<rect x="33.732" y="3.401" fill="none" stroke="#000000" stroke-width="0.7087" stroke-miterlimit="10" width="7.087" height="9.354"/>
		<text transform="matrix(1 0 0 1 16.7246 20.6929)" font-family="'OCRAStd'" font-size="5.6693">IC</text>
	</g>
	<g id="copper0" display="inline">
		<rect id="connector1pad" y="1.438" fill="#F5BD18" width="5.669" height="2.834"/>
		<rect id="connector2pad" x="0.002" y="7.107" fill="#F5BD18" width="5.67" height="2.834"/>
		<rect id="connector3pad" x="0.001" y="12.776" fill="#F5BD18" width="5.67" height="2.834"/>
		<rect id="connector4pad" x="0.002" y="18.445" fill="#F5BD18" width="5.67" height="2.834"/>
		<rect id="connector5pad" x="0.001" y="24.114" fill="#F5BD18" width="5.67" height="2.834"/>
		<rect id="connector6pad" x="0.001" y="29.784" fill="#F5BD18" width="5.67" height="2.836"/>
		<rect id="connector7pad" x="0.001" y="35.452" fill="#F5BD18" width="5.67" height="2.836"/>
		<rect id="connector8pad" x="0.002" y="41.116" fill="#F5BD18" width="5.67" height="2.836"/>
		<rect id="connector9pad" x="45.348" y="1.379" fill="#F5BD18" width="5.67" height="2.834"/>
		<rect id="connector10pad" x="45.35" y="7.048" fill="#F5BD18" width="5.67" height="2.834"/>
		<rect id="connector11pad" x="45.35" y="12.718" fill="#F5BD18" width="5.67" height="2.834"/>
		<rect id="connector12pad" x="45.35" y="18.387" fill="#F5BD18" width="5.67" height="2.834"/>
		<rect id="connector13pad" x="45.35" y="24.056" fill="#F5BD18" width="5.67" height="2.834"/>
		<rect id="connector14pad" x="45.349" y="29.726" fill="#F5BD18" width="5.671" height="2.836"/>
		<rect id="connector15pad" x="45.349" y="35.394" fill="#F5BD18" width="5.671" height="2.836"/>
		<rect id="connector16pad" x="45.35" y="41.058" fill="#F5BD18" width="5.67" height="2.836"/>
	</g>
</g>
<g id="breadboard" display="none">
	<g id="Layer_7">
		<g id="Board" display="inline">
			<rect x="2.853" fill="#217B3D" width="45.354" height="45.354"/>
		</g>
		<rect x="12.756" y="8.504" display="inline" width="16.441" height="16.725"/>
		<rect x="34.016" y="1.701" display="inline" fill="#59595A" width="7.087" height="9.354"/>
		<rect x="28.63" y="35.149" display="inline" width="3.401" height="5.67"/>
		<rect x="34.866" y="28.63" display="inline" width="6.52" height="4.252"/>
	</g>
	<g id="Copper_2_">
		<circle display="inline" fill="#9A916C" cx="4.252" cy="2.835" r="1.417"/>
		<circle display="inline" fill="#9A916C" cx="4.252" cy="8.503" r="1.417"/>
		<circle display="inline" fill="#9A916C" cx="4.252" cy="14.173" r="1.417"/>
		<circle display="inline" fill="#9A916C" cx="4.252" cy="19.842" r="1.418"/>
		<circle display="inline" fill="#9A916C" cx="4.252" cy="25.513" r="1.417"/>
		<circle display="inline" fill="#9A916C" cx="4.252" cy="31.182" r="1.418"/>
		<circle display="inline" fill="#9A916C" cx="4.252" cy="36.852" r="1.418"/>
		<circle display="inline" fill="#9A916C" cx="4.252" cy="42.52" r="1.418"/>
		<circle display="inline" fill="#9A916C" cx="46.771" cy="2.834" r="1.418"/>
		<circle display="inline" fill="#9A916C" cx="46.771" cy="8.503" r="1.418"/>
		<circle display="inline" fill="#9A916C" cx="46.771" cy="14.173" r="1.418"/>
		<circle display="inline" fill="#9A916C" cx="46.771" cy="19.841" r="1.418"/>
		<circle display="inline" fill="#9A916C" cx="46.771" cy="25.512" r="1.418"/>
		<circle display="inline" fill="#9A916C" cx="46.771" cy="31.182" r="1.418"/>
		<circle display="inline" fill="#9A916C" cx="46.771" cy="36.852" r="1.418"/>
		<circle display="inline" fill="#9A916C" cx="46.771" cy="42.52" r="1.418"/>
	</g>
</g>
<g id="schematic">
	<g id="schematic_1_">
		
			<rect x="8.714" y="3.09" fill="none" stroke="#010101" stroke-width="0.2835" stroke-miterlimit="10" width="33.877" height="39.429"/>
		
			<text transform="matrix(-4.371139e-08 -1 1 -4.371139e-08 28.0645 34.9941)" fill="#010101" font-family="'OCRAStd'" font-size="5.8989">RFM9xW</text>
		<line fill="none" stroke="#010101" stroke-width="0.2835" stroke-miterlimit="10" x1="3.401" y1="5.796" x2="8.714" y2="5.796"/>
		
			<line fill="none" stroke="#010101" stroke-width="0.2835" stroke-miterlimit="10" x1="3.402" y1="10.644" x2="8.714" y2="10.644"/>
		
			<line fill="none" stroke="#010101" stroke-width="0.2835" stroke-miterlimit="10" x1="3.401" y1="15.493" x2="8.713" y2="15.493"/>
		
			<line fill="none" stroke="#010101" stroke-width="0.2835" stroke-miterlimit="10" x1="3.401" y1="20.339" x2="8.713" y2="20.339"/>
		
			<line fill="none" stroke="#010101" stroke-width="0.2835" stroke-miterlimit="10" x1="3.402" y1="25.188" x2="8.714" y2="25.188"/>
		
			<line fill="none" stroke="#010101" stroke-width="0.2835" stroke-miterlimit="10" x1="3.401" y1="30.035" x2="8.713" y2="30.035"/>
		
			<line fill="none" stroke="#010101" stroke-width="0.2835" stroke-miterlimit="10" x1="3.401" y1="34.883" x2="8.712" y2="34.883"/>
		<line fill="none" stroke="#010101" stroke-width="0.2835" stroke-miterlimit="10" x1="3.401" y1="39.73" x2="8.712" y2="39.73"/>
		<line fill="none" stroke="#010101" stroke-width="0.2835" stroke-miterlimit="10" x1="42.52" y1="5.878" x2="47.832" y2="5.878"/>
		
			<line fill="none" stroke="#010101" stroke-width="0.2835" stroke-miterlimit="10" x1="42.521" y1="10.726" x2="47.832" y2="10.726"/>
		
			<line fill="none" stroke="#010101" stroke-width="0.2835" stroke-miterlimit="10" x1="42.52" y1="15.574" x2="47.832" y2="15.574"/>
		
			<line fill="none" stroke="#010101" stroke-width="0.2835" stroke-miterlimit="10" x1="42.52" y1="20.421" x2="47.832" y2="20.421"/>
		
			<line fill="none" stroke="#010101" stroke-width="0.2835" stroke-miterlimit="10" x1="42.521" y1="25.268" x2="47.832" y2="25.268"/>
		
			<line fill="none" stroke="#010101" stroke-width="0.2835" stroke-miterlimit="10" x1="42.52" y1="30.117" x2="47.832" y2="30.117"/>
		
			<line fill="none" stroke="#010101" stroke-width="0.2835" stroke-miterlimit="10" x1="42.52" y1="34.963" x2="47.832" y2="34.963"/>
		
			<line fill="none" stroke="#010101" stroke-width="0.2835" stroke-miterlimit="10" x1="42.52" y1="39.812" x2="47.832" y2="39.812"/>
		<text transform="matrix(1 0 0 1 9.9224 6.9302)" fill="#010101" font-family="'OCRAStd'" font-size="3">gnd</text>
		<text transform="matrix(1 0 0 1 10.2056 11.4663)" fill="#010101" font-family="'OCRAStd'" font-size="3">miso</text>
		<text transform="matrix(1 0 0 1 10.2056 16.2847)" fill="#010101" font-family="'OCRAStd'" font-size="3">mosi</text>
		<text transform="matrix(1 0 0 1 9.9224 20.5366)" fill="#010101" font-family="'OCRAStd'" font-size="3">sck</text>
		<text transform="matrix(1 0 0 1 9.9224 25.3555)" fill="#010101" font-family="'OCRAStd'" font-size="3">nss</text>
		<text transform="matrix(1 0 0 1 9.9224 30.1738)" fill="#010101" font-family="'OCRAStd'" font-size="3">reset</text>
		<text transform="matrix(1 0 0 1 9.9224 35.2773)" fill="#010101" font-family="'OCRAStd'" font-size="3">dio5</text>
		<text transform="matrix(1 0 0 1 10.2056 40.0957)" fill="#010101" font-family="'OCRAStd'" font-size="3">gnd</text>
		<text transform="matrix(1 0 0 1 32.7461 6.9302)" fill="#010101" font-family="'OCRAStd'" font-size="3">dio2</text>
		<text transform="matrix(1 0 0 1 33.0293 11.4663)" fill="#010101" font-family="'OCRAStd'" font-size="3">dio1</text>
		<text transform="matrix(1 0 0 1 33.0293 16.2847)" fill="#010101" font-family="'OCRAStd'" font-size="3">dio0</text>
		<text transform="matrix(1 0 0 1 34.9062 20.5366)" fill="#010101" font-family="'OCRAStd'" font-size="3">3v3</text>
		<text transform="matrix(1 0 0 1 32.7461 25.3555)" fill="#010101" font-family="'OCRAStd'" font-size="3">dio4</text>
		<text transform="matrix(1 0 0 1 32.7461 30.1738)" fill="#010101" font-family="'OCRAStd'" font-size="3">dio3</text>
		<text transform="matrix(1 0 0 1 34.9062 35.2773)" fill="#010101" font-family="'OCRAStd'" font-size="3">gnd</text>
		<text transform="matrix(1 0 0 1 35.1895 40.0957)" fill="#010101" font-family="'OCRAStd'" font-size="3">ant</text>
	</g>
</g>
</svg>
