<?xml version="1.0" encoding="utf-8"?>
<!-- Generator: Adobe Illustrator 16.0.0, SVG Export Plug-In . SVG Version: 6.00 Build 0)  -->
<svg version="1.2" baseProfile="tiny" xmlns="http://www.w3.org/2000/svg" xmlns:xlink="http://www.w3.org/1999/xlink" x="0px"
	 y="0px" width="51.02px" height="45.35px" viewBox="0 0 51.02 45.35" xml:space="preserve">
<g id="breadboard">
	<rect id="Board" x="2.853" fill="#217B3D" width="45.354" height="45.354"/>
	<rect x="12.756" y="8.504" width="16.441" height="16.725"/>
	<rect x="34.016" y="1.701" fill="#59595A" width="7.087" height="9.354"/>
	<rect x="28.63" y="35.149" width="3.401" height="5.67"/>
	<rect x="34.866" y="28.63" width="6.52" height="4.252"/>
	<circle fill="#9A916C" cx="4.252" cy="2.835" r="1.417"/>
	<circle fill="#9A916C" cx="4.252" cy="8.503" r="1.417"/>
	<circle fill="#9A916C" cx="4.252" cy="14.173" r="1.417"/>
	<circle fill="#9A916C" cx="4.252" cy="19.842" r="1.418"/>
	<circle fill="#9A916C" cx="4.252" cy="25.513" r="1.417"/>
	<circle fill="#9A916C" cx="4.252" cy="31.182" r="1.418"/>
	<circle fill="#9A916C" cx="4.252" cy="36.852" r="1.418"/>
	<circle fill="#9A916C" cx="4.252" cy="42.52" r="1.418"/>
	<circle fill="#9A916C" cx="46.771" cy="2.834" r="1.418"/>
	<circle fill="#9A916C" cx="46.771" cy="8.503" r="1.418"/>
	<circle fill="#9A916C" cx="46.771" cy="14.173" r="1.418"/>
	<circle fill="#9A916C" cx="46.771" cy="19.841" r="1.418"/>
	<circle fill="#9A916C" cx="46.771" cy="25.512" r="1.418"/>
	<circle fill="#9A916C" cx="46.771" cy="31.182" r="1.418"/>
	<circle fill="#9A916C" cx="46.771" cy="36.852" r="1.418"/>
	<circle fill="#9A916C" cx="46.771" cy="42.52" r="1.418"/>
</g>
</svg>
