<?xml version="1.0" encoding="utf-8"?>
<!-- Generator: Adobe Illustrator 16.0.0, SVG Export Plug-In . SVG Version: 6.00 Build 0)  -->
<svg version="1.2" baseProfile="tiny" xmlns="http://www.w3.org/2000/svg" xmlns:xlink="http://www.w3.org/1999/xlink" x="0px"
	 y="0px" width="51.02px" height="45.35px" viewBox="0 0 51.02 45.35" xml:space="preserve">
<g id="pcb">
	<g id="silkscreen">
		<text transform="matrix(1 0 0 1 16.7246 20.6929)" font-family="OCRA" font-size="5.6693">IC</text>

			<line fill="none" stroke="#000000" stroke-width="0.7087" stroke-miterlimit="10" x1="12.473" y1="10.205" x2="28.914" y2="10.205"/>

			<line fill="none" stroke="#000000" stroke-width="0.7087" stroke-miterlimit="10" x1="28.914" y1="10.205" x2="28.914" y2="26.929"/>

			<line fill="none" stroke="#000000" stroke-width="0.7087" stroke-miterlimit="10" x1="28.914" y1="26.929" x2="12.473" y2="26.929"/>

			<line fill="none" stroke="#000000" stroke-width="0.7087" stroke-miterlimit="10" x1="12.473" y1="26.929" x2="12.473" y2="10.205"/>

			<line fill="none" stroke="#000000" stroke-width="0.7087" stroke-miterlimit="10" x1="33.732" y1="3.401" x2="33.732" y2="12.756"/>

			<line fill="none" stroke="#000000" stroke-width="0.7087" stroke-miterlimit="10" x1="33.732" y1="12.756" x2="40.819" y2="12.756"/>

			<line fill="none" stroke="#000000" stroke-width="0.7087" stroke-miterlimit="10" x1="40.819" y1="12.756" x2="40.819" y2="3.401"/>

			<line fill="none" stroke="#000000" stroke-width="0.7087" stroke-miterlimit="10" x1="40.819" y1="3.401" x2="33.732" y2="3.401"/>
	</g>
	<g id="copper1">
		<rect id="connector1pad" x="0.25" y="1.438" fill="#F5BD18" width="5.669" height="2.834"/>
		<rect id="connector2pad" x="0.252" y="7.107" fill="#F5BD18" width="5.67" height="2.834"/>
		<rect id="connector3pad" x="0.251" y="12.776" fill="#F5BD18" width="5.67" height="2.834"/>
		<rect id="connector4pad" x="0.252" y="18.445" fill="#F5BD18" width="5.67" height="2.834"/>
		<rect id="connector5pad" x="0.251" y="24.114" fill="#F5BD18" width="5.67" height="2.834"/>
		<rect id="connector6pad" x="0.251" y="29.784" fill="#F5BD18" width="5.67" height="2.836"/>
		<rect id="connector7pad" x="0.251" y="35.452" fill="#F5BD18" width="5.67" height="2.836"/>
		<rect id="connector8pad" x="0.252" y="41.116" fill="#F5BD18" width="5.67" height="2.836"/>
		<rect id="connector9pad" x="45.077" y="1.379" fill="#F5BD18" width="5.67" height="2.834"/>
		<rect id="connector10pad" x="45.079" y="7.048" fill="#F5BD18" width="5.67" height="2.834"/>
		<rect id="connector11pad" x="45.079" y="12.718" fill="#F5BD18" width="5.67" height="2.834"/>
		<rect id="connector12pad" x="45.079" y="18.387" fill="#F5BD18" width="5.67" height="2.834"/>
		<rect id="connector13pad" x="45.079" y="24.056" fill="#F5BD18" width="5.67" height="2.834"/>
		<rect id="connector14pad" x="45.078" y="29.726" fill="#F5BD18" width="5.671" height="2.836"/>
		<rect id="connector15pad" x="45.078" y="35.394" fill="#F5BD18" width="5.671" height="2.836"/>
		<rect id="connector16pad" x="45.079" y="41.058" fill="#F5BD18" width="5.67" height="2.836"/>
	</g>
</g>
</svg>
