<?xml version="1.0" encoding="utf-8"?>
<!-- Generator: Adobe Illustrator 16.0.0, SVG Export Plug-In . SVG Version: 6.00 Build 0)  -->
<svg version="1.2" baseProfile="tiny" xmlns="http://www.w3.org/2000/svg" xmlns:xlink="http://www.w3.org/1999/xlink" x="0px"
	 y="0px" width="51.02px" height="45.35px" viewBox="0 0 51.02 45.35" xml:space="preserve">
<g id="schematic">

		<rect x="8.714" y="2.963" fill="none" stroke="#000000" stroke-width="0.2835" stroke-miterlimit="10" width="33.877" height="39.43"/>
	<text transform="matrix(-4.371139e-08 -1 1 -4.371139e-08 28.0635 34.8662)" font-family="'OCRAStd'" font-size="5.8989">RFM9xW</text>
	<line fill="none" stroke="#000000" stroke-width="0.2835" stroke-miterlimit="10" x1="3.401" y1="5.669" x2="8.714" y2="5.669"/>
	<line fill="none" stroke="#000000" stroke-width="0.2835" stroke-miterlimit="10" x1="3.402" y1="10.517" x2="8.714" y2="10.517"/>
	<line fill="none" stroke="#000000" stroke-width="0.2835" stroke-miterlimit="10" x1="3.401" y1="15.365" x2="8.713" y2="15.365"/>
	<line fill="none" stroke="#000000" stroke-width="0.2835" stroke-miterlimit="10" x1="3.401" y1="20.212" x2="8.713" y2="20.212"/>
	<line fill="none" stroke="#000000" stroke-width="0.2835" stroke-miterlimit="10" x1="3.402" y1="25.06" x2="8.714" y2="25.06"/>
	<line fill="none" stroke="#000000" stroke-width="0.2835" stroke-miterlimit="10" x1="3.401" y1="29.908" x2="8.713" y2="29.908"/>
	<line fill="none" stroke="#000000" stroke-width="0.2835" stroke-miterlimit="10" x1="3.401" y1="34.755" x2="8.712" y2="34.755"/>
	<line fill="none" stroke="#000000" stroke-width="0.2835" stroke-miterlimit="10" x1="3.401" y1="39.604" x2="8.712" y2="39.604"/>
	<line fill="none" stroke="#000000" stroke-width="0.2835" stroke-miterlimit="10" x1="42.52" y1="5.751" x2="47.831" y2="5.751"/>

		<line fill="none" stroke="#000000" stroke-width="0.2835" stroke-miterlimit="10" x1="42.521" y1="10.599" x2="47.831" y2="10.599"/>

		<line fill="none" stroke="#000000" stroke-width="0.2835" stroke-miterlimit="10" x1="42.52" y1="15.447" x2="47.831" y2="15.447"/>

		<line fill="none" stroke="#000000" stroke-width="0.2835" stroke-miterlimit="10" x1="42.52" y1="20.294" x2="47.831" y2="20.294"/>

		<line fill="none" stroke="#000000" stroke-width="0.2835" stroke-miterlimit="10" x1="42.521" y1="25.141" x2="47.831" y2="25.141"/>

		<line fill="none" stroke="#000000" stroke-width="0.2835" stroke-miterlimit="10" x1="42.52" y1="29.989" x2="47.831" y2="29.989"/>

		<line fill="none" stroke="#000000" stroke-width="0.2835" stroke-miterlimit="10" x1="42.52" y1="34.836" x2="47.831" y2="34.836"/>

		<line fill="none" stroke="#000000" stroke-width="0.2835" stroke-miterlimit="10" x1="42.52" y1="39.685" x2="47.831" y2="39.685"/>
	<text transform="matrix(1 0 0 1 9.9214 6.8032)" font-family="'OCRAStd'" font-size="3">gnd</text>
	<text transform="matrix(1 0 0 1 10.2046 11.3389)" font-family="'OCRAStd'" font-size="3">miso</text>
	<text transform="matrix(1 0 0 1 10.2046 16.1577)" font-family="'OCRAStd'" font-size="3">mosi</text>
	<text transform="matrix(1 0 0 1 9.9214 20.4092)" font-family="'OCRAStd'" font-size="3">sck</text>
	<text transform="matrix(1 0 0 1 9.9214 25.2285)" font-family="'OCRAStd'" font-size="3">nss</text>
	<text transform="matrix(1 0 0 1 9.9214 30.0469)" font-family="'OCRAStd'" font-size="3">reset</text>
	<text transform="matrix(1 0 0 1 9.9214 35.1494)" font-family="'OCRAStd'" font-size="3">dio5</text>
	<text transform="matrix(1 0 0 1 10.2046 39.9688)" font-family="'OCRAStd'" font-size="3">gnd</text>
	<text transform="matrix(1 0 0 1 32.7461 6.8032)" font-family="'OCRAStd'" font-size="3">dio2</text>
	<text transform="matrix(1 0 0 1 33.0293 11.3389)" font-family="'OCRAStd'" font-size="3">dio1</text>
	<text transform="matrix(1 0 0 1 33.0293 16.1577)" font-family="'OCRAStd'" font-size="3">dio0</text>
	<text transform="matrix(1 0 0 1 34.9053 20.4092)" font-family="'OCRAStd'" font-size="3">3v3</text>
	<text transform="matrix(1 0 0 1 32.7461 25.2285)" font-family="'OCRAStd'" font-size="3">dio4</text>
	<text transform="matrix(1 0 0 1 32.7461 30.0469)" font-family="'OCRAStd'" font-size="3">dio3</text>
	<text transform="matrix(1 0 0 1 34.9053 35.1494)" font-family="'OCRAStd'" font-size="3">gnd</text>
	<text transform="matrix(1 0 0 1 35.1885 39.9688)" font-family="'OCRAStd'" font-size="3">ant</text>
</g>
</svg>
