<?xml version="1.0" encoding="utf-8"?>
<!-- Generator: Adobe Illustrator 16.0.0, SVG Export Plug-In . SVG Version: 6.00 Build 0)  -->
<svg version="1.2" baseProfile="tiny" xmlns="http://www.w3.org/2000/svg" xmlns:xlink="http://www.w3.org/1999/xlink" x="0px"
	 y="0px" width="51.02px" height="45.35px" viewBox="0 0 51.02 45.35" xml:space="preserve">
<g id="pcb">
	<g id="Outline">
		
			<rect x="12.473" y="10.205" fill="none" stroke="#000000" stroke-width="0.7087" stroke-miterlimit="10" width="16.441" height="16.724"/>
		
			<rect x="33.732" y="3.401" fill="none" stroke="#000000" stroke-width="0.7087" stroke-miterlimit="10" width="7.087" height="9.354"/>
		<text transform="matrix(1 0 0 1 16.7246 20.6929)" font-family="'OCRAStd'" font-size="5.6693">IC</text>
		
			<rect x="3.118" y="1.134" fill="none" stroke="#000000" stroke-width="0.7087" stroke-miterlimit="10" width="45.069" height="43.087"/>
	</g>
	<g id="copper0">
		<rect id="connector1pad" y="1.438" fill="#F5BD18" width="5.669" height="2.834"/>
		<rect id="connector2pad" x="0.002" y="7.107" fill="#F5BD18" width="5.67" height="2.834"/>
		<rect id="connector3pad" x="0.001" y="12.776" fill="#F5BD18" width="5.67" height="2.834"/>
		<rect id="connector4pad" x="0.002" y="18.445" fill="#F5BD18" width="5.67" height="2.834"/>
		<rect id="connector5pad" x="0.001" y="24.114" fill="#F5BD18" width="5.67" height="2.834"/>
		<rect id="connector6pad" x="0.001" y="29.784" fill="#F5BD18" width="5.67" height="2.836"/>
		<rect id="connector7pad" x="0.001" y="35.452" fill="#F5BD18" width="5.67" height="2.836"/>
		<rect id="connector8pad" x="0.002" y="41.116" fill="#F5BD18" width="5.67" height="2.836"/>
		<rect id="connector9pad" x="45.348" y="1.379" fill="#F5BD18" width="5.67" height="2.834"/>
		<rect id="connector10pad" x="45.35" y="7.048" fill="#F5BD18" width="5.67" height="2.834"/>
		<rect id="connector11pad" x="45.35" y="12.718" fill="#F5BD18" width="5.67" height="2.834"/>
		<rect id="connector12pad" x="45.35" y="18.387" fill="#F5BD18" width="5.67" height="2.834"/>
		<rect id="connector13pad" x="45.35" y="24.056" fill="#F5BD18" width="5.67" height="2.834"/>
		<rect id="connector14pad" x="45.349" y="29.726" fill="#F5BD18" width="5.671" height="2.836"/>
		<rect id="connector15pad" x="45.349" y="35.394" fill="#F5BD18" width="5.671" height="2.836"/>
		<rect id="connector16pad" x="45.35" y="41.058" fill="#F5BD18" width="5.67" height="2.836"/>
	</g>
</g>
<g id="breadboard" display="none">
	<g id="Layer_7" display="inline">
		<rect id="Board" x="2.853" fill="#217B3D" width="45.354" height="45.354"/>
		<rect x="12.756" y="8.504" width="16.441" height="16.725"/>
		<rect x="34.016" y="1.701" fill="#59595A" width="7.087" height="9.354"/>
		<rect x="28.63" y="35.149" width="3.401" height="5.67"/>
		<rect x="34.866" y="28.63" width="6.52" height="4.252"/>
	</g>
	<g id="Copper_2_">
		<circle display="inline" fill="#9A916C" cx="4.252" cy="2.835" r="1.417"/>
		<circle display="inline" fill="#9A916C" cx="4.252" cy="8.503" r="1.417"/>
		<circle display="inline" fill="#9A916C" cx="4.252" cy="14.173" r="1.417"/>
		<circle display="inline" fill="#9A916C" cx="4.252" cy="19.842" r="1.418"/>
		<circle display="inline" fill="#9A916C" cx="4.252" cy="25.513" r="1.417"/>
		<circle display="inline" fill="#9A916C" cx="4.252" cy="31.182" r="1.418"/>
		<circle display="inline" fill="#9A916C" cx="4.252" cy="36.852" r="1.418"/>
		<circle display="inline" fill="#9A916C" cx="4.252" cy="42.52" r="1.418"/>
		<circle display="inline" fill="#9A916C" cx="46.771" cy="2.834" r="1.418"/>
		<circle display="inline" fill="#9A916C" cx="46.771" cy="8.503" r="1.418"/>
		<circle display="inline" fill="#9A916C" cx="46.771" cy="14.173" r="1.418"/>
		<circle display="inline" fill="#9A916C" cx="46.771" cy="19.841" r="1.418"/>
		<circle display="inline" fill="#9A916C" cx="46.771" cy="25.512" r="1.418"/>
		<circle display="inline" fill="#9A916C" cx="46.771" cy="31.182" r="1.418"/>
		<circle display="inline" fill="#9A916C" cx="46.771" cy="36.852" r="1.418"/>
		<circle display="inline" fill="#9A916C" cx="46.771" cy="42.52" r="1.418"/>
	</g>
</g>
</svg>
